<?xml version="1.0" encoding="utf-8"?>
<!-- Generated by IcoMoon.io -->
<!DOCTYPE svg PUBLIC "-//W3C//DTD SVG 1.1//EN" "http://www.w3.org/Graphics/SVG/1.1/DTD/svg11.dtd">
<svg version="1.1" xmlns="http://www.w3.org/2000/svg" xmlns:xlink="http://www.w3.org/1999/xlink" width="500" height="500" viewBox="0 0 500 500">
<path fill="#000" d="M395.833 83.333q8.952 0 14.893 5.941t5.941 14.893q0 8.789-6.022 14.811l-131.185 131.022 131.185 131.022q6.022 6.022 6.022 14.811 0 8.952-5.941 14.893t-14.893 5.941q-8.789 0-14.811-6.022l-131.022-131.185-131.022 131.185q-6.022 6.022-14.811 6.022-8.952 0-14.893-5.941t-5.941-14.893q0-8.789 6.022-14.811l131.185-131.022-131.185-131.022q-6.022-6.022-6.022-14.811 0-8.952 5.941-14.893t14.893-5.941q8.789 0 14.811 6.022l131.022 131.185 131.022-131.185q6.022-6.022 14.811-6.022z"></path>
</svg>
